<?xml version="1.0" encoding="utf-8"?>
<!-- Generator: Adobe Illustrator 19.0.0, SVG Export Plug-In . SVG Version: 6.00 Build 0)  -->
<svg version="1.1" id="Camada_1" focusable="false" xmlns="http://www.w3.org/2000/svg" xmlns:xlink="http://www.w3.org/1999/xlink"
	 x="0px" y="0px" viewBox="-111 45 576 512" style="enable-background:new -111 45 576 512;" xml:space="preserve">
<path d="M417.1,346.3l47.3-208c3.4-15-8-29.3-23.4-29.3H48.2L39,64.2C36.8,53,26.9,45,15.5,45H-87c-13.3,0-24,10.7-24,24v16
	c0,13.3,10.7,24,24,24h69.9l70.2,343.4C36.3,462.1,25,480.2,25,501c0,30.9,25.1,56,56,56s56-25.1,56-56c0-15.7-6.4-29.8-16.8-40
	h209.6c-10.4,10.2-16.8,24.3-16.8,40c0,30.9,25.1,56,56,56s56-25.1,56-56c0-22.2-12.9-41.3-31.6-50.4l5.5-24.3
	c3.4-15-8-29.3-23.4-29.3H107.1l-6.5-32h293.1C404.9,365,414.6,357.2,417.1,346.3z"/>
</svg>
